<svg width="64" height="53" viewBox="0 0 64 53" fill="none" xmlns="http://www.w3.org/2000/svg">
<rect width="64" height="53" fill="white"/>
<path d="M21.5041 17C22.8915 17 24.1522 17.1929 25.2862 17.5788C26.4314 17.9646 27.4554 18.4577 28.3582 19.0579C29.2611 19.6474 30.0538 20.2529 30.7365 20.8746C30.9897 21.1104 31.2099 21.3247 31.3971 21.5177C31.5954 21.7106 31.7935 21.9196 31.9917 22.1447C32.1789 21.9196 32.3661 21.7106 32.5532 21.5177C32.7515 21.314 32.9717 21.0997 33.2139 20.8746C34.2599 19.9207 35.5592 19.0364 37.1117 18.2219C38.6752 17.4073 40.4644 17 42.4794 17C44.4171 17 46.1789 17.4555 47.7644 18.3666C49.3609 19.2669 50.6327 20.478 51.5796 22C52.5265 23.5112 53 25.1779 53 27C53 28.3826 52.7247 29.6794 52.1741 30.8906C51.6346 32.091 50.8805 33.1521 49.9115 34.0739C48.9536 34.9849 47.836 35.703 46.5588 36.2282C45.2926 36.7427 43.9328 37 42.4794 37C41.114 37 39.8643 36.8123 38.7302 36.4373C37.5962 36.0622 36.5776 35.5905 35.6748 35.0225C34.7719 34.4436 33.9792 33.8542 33.2964 33.254C32.9992 32.9861 32.7515 32.7556 32.5532 32.5627C32.3661 32.359 32.1789 32.1447 31.9917 31.9196C31.7715 32.1661 31.5623 32.3858 31.3641 32.5787C31.1769 32.7717 30.9567 32.9967 30.7034 33.254C30.0429 33.8328 29.2611 34.4115 28.3582 34.9903C27.4554 35.5584 26.4314 36.0353 25.2862 36.4212C24.1522 36.807 22.8915 37 21.5041 37C19.5663 37 17.8046 36.5498 16.219 35.6495C14.6335 34.7491 13.3673 33.5434 12.4204 32.0321C11.4735 30.5208 11 28.8435 11 27C11 25.6281 11.2698 24.3419 11.8093 23.1415C12.3598 21.9303 13.114 20.8639 14.072 19.9421C15.0409 19.0204 16.1585 18.3022 17.4247 17.7878C18.7019 17.2626 20.0617 17 21.5041 17ZM17.1769 27C17.1769 27.7502 17.3696 28.4308 17.755 29.0418C18.1514 29.642 18.6744 30.1242 19.324 30.4887C19.9847 30.8424 20.7114 31.0193 21.5041 31.0193C22.451 31.0193 23.3209 30.8263 24.1136 30.4405C24.9174 30.0546 25.6882 29.5401 26.4259 28.8971C26.8443 28.5219 27.1911 28.1736 27.4663 27.8521C27.7416 27.5305 27.9673 27.2465 28.1435 27C27.9454 26.7535 27.6646 26.4426 27.3012 26.0675C26.9489 25.6816 26.6571 25.3815 26.4259 25.1672C25.7653 24.5562 25.0165 24.0418 24.1797 23.6238C23.3428 23.1951 22.451 22.9807 21.5041 22.9807C20.7114 22.9807 19.9847 23.1683 19.324 23.5434C18.6744 23.9078 18.1514 24.3955 17.755 25.0064C17.3696 25.6066 17.1769 26.2711 17.1769 27ZM46.7735 27C46.7735 26.2711 46.5807 25.6066 46.1954 25.0064C45.821 24.3955 45.3091 23.9078 44.6595 23.5434C44.0098 23.1683 43.2831 22.9807 42.4794 22.9807C41.8407 22.9807 41.2241 23.0825 40.6296 23.2862C40.035 23.4791 39.479 23.747 38.9614 24.09C38.4549 24.4223 37.9925 24.7813 37.5741 25.1672C37.2768 25.4459 36.9575 25.7727 36.6162 26.1479C36.2748 26.523 36.0216 26.807 35.8565 27C36.0657 27.3001 36.3079 27.6055 36.5832 27.9164C36.8584 28.2165 37.1887 28.5434 37.5741 28.8971C38.2678 29.5187 39.0165 30.0278 39.8202 30.4244C40.635 30.821 41.5214 31.0193 42.4794 31.0193C43.2831 31.0193 44.0098 30.8424 44.6595 30.4887C45.3091 30.1242 45.821 29.642 46.1954 29.0418C46.5807 28.4308 46.7735 27.7502 46.7735 27Z" fill="url(#paint0_linear_183_5)"/>
<defs>
<linearGradient id="paint0_linear_183_5" x1="47.0223" y1="30.5687" x2="13.3381" y2="30.0133" gradientUnits="userSpaceOnUse">
<stop stop-color="#088FFE"/>
<stop offset="1" stop-color="#9000FF"/>
</linearGradient>
</defs>
</svg>
