<svg width="182" height="46" viewBox="0 0 182 46" fill="none" xmlns="http://www.w3.org/2000/svg">
<path d="M27.6392 17.7784C28.8324 17.7784 29.9167 17.9489 30.892 18.2898C31.8769 18.6307 32.7576 19.0663 33.5341 19.5966C34.3106 20.1174 34.9924 20.6525 35.5795 21.2017C35.7973 21.41 35.9867 21.5994 36.1477 21.7699C36.3182 21.9403 36.4886 22.125 36.6591 22.3239C36.8201 22.125 36.9811 21.9403 37.142 21.7699C37.3125 21.59 37.5019 21.4006 37.7102 21.2017C38.6098 20.3589 39.7273 19.5777 41.0625 18.858C42.4072 18.1383 43.946 17.7784 45.679 17.7784C47.3456 17.7784 48.8608 18.1809 50.2244 18.9858C51.5975 19.7812 52.6913 20.8513 53.5057 22.196C54.3201 23.5312 54.7273 25.0038 54.7273 26.6136C54.7273 27.8352 54.4905 28.9811 54.017 30.0511C53.553 31.1117 52.9044 32.0492 52.071 32.8636C51.2472 33.6686 50.286 34.303 49.1875 34.767C48.0985 35.2216 46.929 35.4489 45.679 35.4489C44.5047 35.4489 43.4299 35.2831 42.4545 34.9517C41.4792 34.6203 40.6032 34.2036 39.8267 33.7017C39.0502 33.1903 38.3684 32.6695 37.7812 32.1392C37.5256 31.9025 37.3125 31.6989 37.142 31.5284C36.9811 31.3485 36.8201 31.1591 36.6591 30.9602C36.4697 31.178 36.2898 31.3722 36.1193 31.5426C35.9583 31.7131 35.7689 31.9119 35.5511 32.1392C34.983 32.6506 34.3106 33.1619 33.5341 33.6733C32.7576 34.1752 31.8769 34.5966 30.892 34.9375C29.9167 35.2784 28.8324 35.4489 27.6392 35.4489C25.9725 35.4489 24.4574 35.0511 23.0938 34.2557C21.7301 33.4602 20.6411 32.3949 19.8267 31.0597C19.0123 29.7244 18.6051 28.2424 18.6051 26.6136C18.6051 25.4015 18.8371 24.2652 19.3011 23.2045C19.7746 22.1345 20.4233 21.1922 21.2472 20.3778C22.0805 19.5634 23.0417 18.929 24.1307 18.4744C25.2292 18.0104 26.3987 17.7784 27.6392 17.7784ZM23.9176 26.6136C23.9176 27.2765 24.0833 27.8778 24.4148 28.4176C24.7557 28.9479 25.2055 29.3741 25.7642 29.696C26.3324 30.0085 26.9574 30.1648 27.6392 30.1648C28.4536 30.1648 29.2017 29.9943 29.8835 29.6534C30.5748 29.3125 31.2377 28.858 31.8722 28.2898C32.232 27.9583 32.5303 27.6506 32.767 27.3665C33.0038 27.0824 33.1979 26.8314 33.3494 26.6136C33.179 26.3958 32.9375 26.1212 32.625 25.7898C32.322 25.4489 32.071 25.1837 31.8722 24.9943C31.304 24.4545 30.66 24 29.9403 23.6307C29.2206 23.2519 28.4536 23.0625 27.6392 23.0625C26.9574 23.0625 26.3324 23.2282 25.7642 23.5597C25.2055 23.8816 24.7557 24.3125 24.4148 24.8523C24.0833 25.3826 23.9176 25.9697 23.9176 26.6136ZM49.3722 26.6136C49.3722 25.9697 49.2064 25.3826 48.875 24.8523C48.553 24.3125 48.1127 23.8816 47.554 23.5597C46.9953 23.2282 46.3703 23.0625 45.679 23.0625C45.1297 23.0625 44.5994 23.1525 44.0881 23.3324C43.5767 23.5028 43.0985 23.7396 42.6534 24.0426C42.2178 24.3362 41.8201 24.6534 41.4602 24.9943C41.2045 25.2405 40.9299 25.5294 40.6364 25.8608C40.3428 26.1922 40.125 26.4432 39.983 26.6136C40.1629 26.8788 40.3712 27.1487 40.608 27.4233C40.8447 27.6884 41.1288 27.9773 41.4602 28.2898C42.0568 28.839 42.7008 29.2888 43.392 29.6392C44.0928 29.9896 44.8551 30.1648 45.679 30.1648C46.3703 30.1648 46.9953 30.0085 47.554 29.696C48.1127 29.3741 48.553 28.9479 48.875 28.4176C49.2064 27.8778 49.3722 27.2765 49.3722 26.6136Z" fill="url(#paint0_linear_47_55)"/>
<path d="M9.48 36.21C7.94 36.21 6.56 35.96 5.34 35.46C4.12 34.96 3.14 34.22 2.4 33.24C1.68 32.26 1.3 31.08 1.26 29.7H6.72C6.8 30.48 7.07 31.08 7.53 31.5C7.99 31.9 8.59 32.1 9.33 32.1C10.09 32.1 10.69 31.93 11.13 31.59C11.57 31.23 11.79 30.74 11.79 30.12C11.79 29.6 11.61 29.17 11.25 28.83C10.91 28.49 10.48 28.21 9.96 27.99C9.46 27.77 8.74 27.52 7.8 27.24C6.44 26.82 5.33 26.4 4.47 25.98C3.61 25.56 2.87 24.94 2.25 24.12C1.63 23.3 1.32 22.23 1.32 20.91C1.32 18.95 2.03 17.42 3.45 16.32C4.87 15.2 6.72 14.64 9 14.64C11.32 14.64 13.19 15.2 14.61 16.32C16.03 17.42 16.79 18.96 16.89 20.94H11.34C11.3 20.26 11.05 19.73 10.59 19.35C10.13 18.95 9.54 18.75 8.82 18.75C8.2 18.75 7.7 18.92 7.32 19.26C6.94 19.58 6.75 20.05 6.75 20.67C6.75 21.35 7.07 21.88 7.71 22.26C8.35 22.64 9.35 23.05 10.71 23.49C12.07 23.95 13.17 24.39 14.01 24.81C14.87 25.23 15.61 25.84 16.23 26.64C16.85 27.44 17.16 28.47 17.16 29.73C17.16 30.93 16.85 32.02 16.23 33C15.63 33.98 14.75 34.76 13.59 35.34C12.43 35.92 11.06 36.21 9.48 36.21ZM63.5916 13.8V36H58.4616V13.8H63.5916ZM75.7092 23.52H72.9492V36H67.8192V23.52H65.9592V19.26H67.8192V18.78C67.8192 16.72 68.4092 15.16 69.5892 14.1C70.7692 13.02 72.4992 12.48 74.7792 12.48C75.1592 12.48 75.4392 12.49 75.6192 12.51V16.86C74.6392 16.8 73.9492 16.94 73.5492 17.28C73.1492 17.62 72.9492 18.23 72.9492 19.11V19.26H75.7092V23.52ZM80.6998 17.52C79.7998 17.52 79.0598 17.26 78.4798 16.74C77.9198 16.2 77.6398 15.54 77.6398 14.76C77.6398 13.96 77.9198 13.3 78.4798 12.78C79.0598 12.24 79.7998 11.97 80.6998 11.97C81.5798 11.97 82.2998 12.24 82.8598 12.78C83.4398 13.3 83.7298 13.96 83.7298 14.76C83.7298 15.54 83.4398 16.2 82.8598 16.74C82.2998 17.26 81.5798 17.52 80.6998 17.52ZM83.2498 19.26V36H78.1198V19.26H83.2498ZM97.1674 19.08C99.1274 19.08 100.687 19.72 101.847 21C103.027 22.26 103.617 24 103.617 26.22V36H98.5174V26.91C98.5174 25.79 98.2274 24.92 97.6474 24.3C97.0674 23.68 96.2874 23.37 95.3074 23.37C94.3274 23.37 93.5474 23.68 92.9674 24.3C92.3874 24.92 92.0974 25.79 92.0974 26.91V36H86.9674V19.26H92.0974V21.48C92.6174 20.74 93.3174 20.16 94.1974 19.74C95.0774 19.3 96.0674 19.08 97.1674 19.08ZM109.762 17.52C108.862 17.52 108.122 17.26 107.542 16.74C106.982 16.2 106.702 15.54 106.702 14.76C106.702 13.96 106.982 13.3 107.542 12.78C108.122 12.24 108.862 11.97 109.762 11.97C110.642 11.97 111.362 12.24 111.922 12.78C112.502 13.3 112.792 13.96 112.792 14.76C112.792 15.54 112.502 16.2 111.922 16.74C111.362 17.26 110.642 17.52 109.762 17.52ZM112.312 19.26V36H107.182V19.26H112.312ZM125.36 31.65V36H122.75C120.89 36 119.44 35.55 118.4 34.65C117.36 33.73 116.84 32.24 116.84 30.18V23.52H114.8V19.26H116.84V15.18H121.97V19.26H125.33V23.52H121.97V30.24C121.97 30.74 122.09 31.1 122.33 31.32C122.57 31.54 122.97 31.65 123.53 31.65H125.36ZM145.317 19.26L134.817 43.95H129.297L133.137 35.43L126.327 19.26H132.057L135.927 29.73L139.767 19.26H145.317Z" fill="#013B79"/>
<path d="M160.795 9.83751V20.3075H158.695V15.8525H154.21V20.3075H152.11V9.83751H154.21V14.1425H158.695V9.83751H160.795ZM164.932 9.83751V16.3175C164.932 17.0275 165.117 17.5725 165.487 17.9525C165.857 18.3225 166.377 18.5075 167.047 18.5075C167.727 18.5075 168.252 18.3225 168.622 17.9525C168.992 17.5725 169.177 17.0275 169.177 16.3175V9.83751H171.292V16.3025C171.292 17.1925 171.097 17.9475 170.707 18.5675C170.327 19.1775 169.812 19.6375 169.162 19.9475C168.522 20.2575 167.807 20.4125 167.017 20.4125C166.237 20.4125 165.527 20.2575 164.887 19.9475C164.257 19.6375 163.757 19.1775 163.387 18.5675C163.017 17.9475 162.832 17.1925 162.832 16.3025V9.83751H164.932ZM179.261 14.9375C179.851 15.0475 180.336 15.3425 180.716 15.8225C181.096 16.3025 181.286 16.8525 181.286 17.4725C181.286 18.0325 181.146 18.5275 180.866 18.9575C180.596 19.3775 180.201 19.7075 179.681 19.9475C179.161 20.1875 178.546 20.3075 177.836 20.3075H173.321V9.83751H177.641C178.351 9.83751 178.961 9.95251 179.471 10.1825C179.991 10.4125 180.381 10.7325 180.641 11.1425C180.911 11.5525 181.046 12.0175 181.046 12.5375C181.046 13.1475 180.881 13.6575 180.551 14.0675C180.231 14.4775 179.801 14.7675 179.261 14.9375ZM175.421 14.1575H177.341C177.841 14.1575 178.226 14.0475 178.496 13.8275C178.766 13.5975 178.901 13.2725 178.901 12.8525C178.901 12.4325 178.766 12.1075 178.496 11.8775C178.226 11.6475 177.841 11.5325 177.341 11.5325H175.421V14.1575ZM177.536 18.5975C178.046 18.5975 178.441 18.4775 178.721 18.2375C179.011 17.9975 179.156 17.6575 179.156 17.2175C179.156 16.7675 179.006 16.4175 178.706 16.1675C178.406 15.9075 178.001 15.7775 177.491 15.7775H175.421V18.5975H177.536Z" fill="#33469E" fill-opacity="0.8"/>
<defs>
<linearGradient id="paint0_linear_47_55" x1="49.5862" y1="1.16853" x2="24.7579" y2="-8.98195" gradientUnits="userSpaceOnUse">
<stop stop-color="#088FFE"/>
<stop offset="1" stop-color="#9000FF"/>
</linearGradient>
</defs>
</svg>
