<svg width="37" height="18" viewBox="0 0 37 18" fill="none" xmlns="http://www.w3.org/2000/svg">
<path d="M9.0341 -4.29153e-06C10.2273 -4.29153e-06 11.3116 0.170451 12.2869 0.511361C13.2718 0.852269 14.1525 1.28787 14.929 1.81818C15.7055 2.33901 16.3873 2.87405 16.9744 3.42329C17.1922 3.63163 17.3816 3.82102 17.5426 3.99147C17.7131 4.16193 17.8835 4.34659 18.054 4.54545C18.215 4.34659 18.376 4.16193 18.5369 3.99147C18.7074 3.81155 18.8968 3.62216 19.1051 3.42329C20.0047 2.58049 21.1222 1.79924 22.4574 1.07954C23.8021 0.359845 25.3409 -4.29153e-06 27.0739 -4.29153e-06C28.7405 -4.29153e-06 30.2557 0.402458 31.6193 1.20738C32.9924 2.00284 34.0862 3.07291 34.9006 4.41761C35.715 5.75284 36.1222 7.22538 36.1222 8.83522C36.1222 10.0568 35.8854 11.2026 35.4119 12.2727C34.9479 13.3333 34.2993 14.2708 33.4659 15.0852C32.6421 15.8901 31.6809 16.5246 30.5824 16.9886C29.4934 17.4432 28.3239 17.6705 27.0739 17.6705C25.8996 17.6705 24.8248 17.5047 23.8494 17.1733C22.8741 16.8419 21.9981 16.4252 21.2216 15.9233C20.4451 15.4119 19.7633 14.8911 19.1761 14.3608C18.9205 14.1241 18.7074 13.9205 18.5369 13.75C18.376 13.5701 18.215 13.3807 18.054 13.1818C17.8646 13.3996 17.6847 13.5937 17.5142 13.7642C17.3532 13.9347 17.1638 14.1335 16.946 14.3608C16.3779 14.8722 15.7055 15.3835 14.929 15.8949C14.1525 16.3968 13.2718 16.8182 12.2869 17.1591C11.3116 17.5 10.2273 17.6705 9.0341 17.6705C7.36744 17.6705 5.85228 17.2727 4.48865 16.4773C3.12501 15.6818 2.036 14.6165 1.2216 13.2812C0.407208 11.946 1.12057e-05 10.464 1.12057e-05 8.83522C1.12057e-05 7.6231 0.232019 6.48674 0.696034 5.42613C1.16952 4.35606 1.81819 3.41382 2.64206 2.59943C3.47539 1.78503 4.43656 1.15056 5.52558 0.696018C6.62406 0.232003 7.79357 -4.29153e-06 9.0341 -4.29153e-06ZM5.31251 8.83522C5.31251 9.4981 5.47823 10.0994 5.80967 10.6392C6.15058 11.1695 6.60039 11.5956 7.1591 11.9176C7.72728 12.2301 8.35228 12.3864 9.0341 12.3864C9.8485 12.3864 10.5966 12.2159 11.2784 11.875C11.9697 11.5341 12.6326 11.0795 13.2671 10.5114C13.6269 10.1799 13.9252 9.87216 14.1619 9.58807C14.3987 9.30397 14.5928 9.05303 14.7443 8.83522C14.5739 8.61742 14.3324 8.3428 14.0199 8.01136C13.7169 7.67045 13.4659 7.4053 13.2671 7.21591C12.6989 6.67613 12.0549 6.22159 11.3352 5.85227C10.6155 5.47348 9.8485 5.28409 9.0341 5.28409C8.35228 5.28409 7.72728 5.44981 7.1591 5.78125C6.60039 6.10322 6.15058 6.53409 5.80967 7.07386C5.47823 7.60416 5.31251 8.19128 5.31251 8.83522ZM30.7671 8.83522C30.7671 8.19128 30.6013 7.60416 30.2699 7.07386C29.9479 6.53409 29.5076 6.10322 28.9489 5.78125C28.3902 5.44981 27.7652 5.28409 27.0739 5.28409C26.5246 5.28409 25.9943 5.37405 25.483 5.55397C24.9716 5.72443 24.4934 5.96117 24.0483 6.2642C23.6127 6.55776 23.215 6.875 22.8551 7.21591C22.5994 7.46212 22.3248 7.75094 22.0313 8.08238C21.7377 8.41382 21.5199 8.66477 21.3779 8.83522C21.5578 9.10038 21.7661 9.37026 22.0029 9.64488C22.2396 9.91003 22.5237 10.1989 22.8551 10.5114C23.4517 11.0606 24.0957 11.5104 24.7869 11.8608C25.4877 12.2112 26.25 12.3864 27.0739 12.3864C27.7652 12.3864 28.3902 12.2301 28.9489 11.9176C29.5076 11.5956 29.9479 11.1695 30.2699 10.6392C30.6013 10.0994 30.7671 9.4981 30.7671 8.83522Z" fill="url(#paint0_linear_178_5)"/>
<defs>
<linearGradient id="paint0_linear_178_5" x1="30.9811" y1="11.9883" x2="2.01048" y2="11.5233" gradientUnits="userSpaceOnUse">
<stop stop-color="#088FFE"/>
<stop offset="1" stop-color="#9000FF"/>
</linearGradient>
</defs>
</svg>
